<svg version="1.1" xmlns="http://www.w3.org/2000/svg" viewBox="-226.30399627685546 -1544.960009765625 8176.710077621146 2342.4"><desc>Created with Snap</desc><defs></defs><g><g transform="matrix(23.8651,0,0,23.8651,5313.1612,-1493.6416)"><path d="M96.745,23.405c-2.492-2.491-5.122-4.505-7.868-6.084v-2.906c0-1.479-1.066-2.742-2.525-2.988  c-2.773-0.468-5.535-0.705-8.211-0.705c-14.937,0-24.331,7.179-28.153,10.84c-3.943-2.874-12.827-8.326-23.479-8.326  c-8.48,0-16.199,3.421-22.945,10.167c-0.569,0.569-0.888,1.339-0.888,2.143V78.75c0,1.048,0.545,2.02,1.435,2.57  C5,81.874,6.115,81.93,7.055,81.464c0.077-0.038,7.826-3.798,19.142-3.798c7.77,0,15.395,1.74,22.663,5.172  c0.004,0.002,0.01,0.003,0.014,0.005c0.186,0.087,0.379,0.15,0.576,0.197c0.034,0.008,0.068,0.015,0.103,0.022  c0.198,0.04,0.399,0.067,0.601,0.067c0.017,0,0.033-0.005,0.049-0.005c0.152-0.003,0.303-0.019,0.454-0.043  c0.558-0.047,1.098-0.237,1.556-0.578c7.039-3.199,14.4-4.836,21.899-4.836c11.314,0,19.063,3.76,19.136,3.795  c0.94,0.471,2.055,0.419,2.948-0.134c0.895-0.554,1.438-1.526,1.438-2.577V25.547C97.633,24.744,97.312,23.973,96.745,23.405z   M53.438,26.68c2.297-2.403,10.59-9.897,24.703-9.897c1.531,0,3.096,0.089,4.678,0.266v47.085c-0.965-0.082-2.09-0.139-3.344-0.139  c-5.832,0-16.207,1.305-26.037,9.112V26.68z M8.738,74.322V26.831c5.344-4.998,11.317-7.532,17.771-7.532  c9.594,0,17.816,5.566,20.615,7.699v0.246v48.264c-6.769-2.592-13.788-3.904-20.927-3.904C18.657,71.604,12.558,73.074,8.738,74.322  z M91.574,74.323c-3.821-1.248-9.922-2.718-17.461-2.718c-2.076,0-4.14,0.124-6.192,0.346c4.244-1.442,8.247-1.896,11.552-1.896  c3.438,0,5.656,0.508,5.67,0.51c0.901,0.215,1.853,0.006,2.582-0.567c0.727-0.575,1.152-1.452,1.152-2.38V24.353  c0.912,0.823,1.816,1.657,2.697,2.479V74.323z" fill="#143d59" style=""></path><desc>Created with Snap</desc><defs></defs></g><g><g transform="matrix(1.024,0,0,-1.024,0,0)"><path d="M322 523Q390 523 442 489Q495 455 526 395Q557 336 557 258Q557 182 526 121Q495 60 442 25Q389 -10 323 -10Q288 -10 256 1Q225 12 199 30Q173 49 153 74Q133 99 121 128L139 141L139 28Q139 15 130 6Q122 -2 109 -2Q96 -2 87 6Q79 15 79 28L79 709Q79 722 87 730Q95 739 109 739Q122 739 130 730Q139 722 139 709L139 374L125 382Q135 413 154 438Q174 464 200 483Q226 502 257 512Q288 523 322 523ZM317 467Q263 467 222 440Q181 413 157 366Q134 319 134 258Q134 198 157 149Q181 101 222 73Q263 46 317 46Q370 46 410 74Q451 102 475 150Q499 199 499 258Q499 319 475 366Q451 413 410 440Q370 467 317 467ZM1153 256Q1153 180 1119 119Q1086 59 1029 24Q972 -10 900 -10Q829 -10 771 24Q714 59 680 119Q647 180 647 256Q647 333 680 393Q714 453 771 488Q829 523 900 523Q972 523 1029 488Q1086 453 1119 393Q1153 333 1153 256ZM1093 256Q1093 317 1068 364Q1043 412 999 439Q956 467 900 467Q845 467 801 439Q758 412 732 364Q707 317 707 256Q707 195 732 148Q758 101 801 73Q845 46 900 46Q956 46 999 73Q1043 101 1068 148Q1093 195 1093 256ZM1748 256Q1748 180 1714 119Q1681 59 1624 24Q1567 -10 1495 -10Q1424 -10 1366 24Q1309 59 1275 119Q1242 180 1242 256Q1242 333 1275 393Q1309 453 1366 488Q1424 523 1495 523Q1567 523 1624 488Q1681 453 1714 393Q1748 333 1748 256ZM1688 256Q1688 317 1663 364Q1638 412 1594 439Q1551 467 1495 467Q1440 467 1396 439Q1353 412 1327 364Q1302 317 1302 256Q1302 195 1327 148Q1353 101 1396 73Q1440 46 1495 46Q1551 46 1594 73Q1638 101 1663 148Q1688 195 1688 256ZM1907 0Q1894 0 1885 9Q1877 18 1877 30L1877 710Q1877 722 1885 731Q1894 740 1907 740Q1920 740 1928 731Q1937 722 1937 710L1937 30Q1937 18 1928 9Q1920 0 1907 0ZM2247 513Q2258 513 2267 503Q2276 494 2276 483Q2276 470 2265 460L1929 174L1926 245L2226 503Q2235 513 2247 513ZM2255 0Q2242 0 2233 11L2005 253L2050 294L2276 53Q2285 43 2285 30Q2285 16 2274 8Q2263 0 2255 0ZM2484 669L2484 31Q2483 18 2473 9Q2464 0 2452 0Q2438 0 2429 9Q2421 18 2421 31L2421 669Q2421 682 2430 691Q2439 700 2453 700Q2465 700 2474 691Q2484 682 2484 669ZM2897 523Q2963 523 3002 496Q3042 470 3059 424Q3077 379 3077 324L3077 30Q3077 18 3068 9Q3059 0 3047 0Q3033 0 3025 9Q3017 18 3017 30L3017 321Q3017 361 3004 394Q2991 427 2961 447Q2932 467 2884 467Q2841 467 2802 447Q2764 427 2740 394Q2716 361 2716 321L2716 30Q2716 18 2707 9Q2698 0 2686 0Q2672 0 2664 9Q2656 18 2656 30L2656 478Q2656 490 2664 499Q2673 508 2686 508Q2699 508 2707 499Q2716 490 2716 478L2716 394L2693 358Q2695 390 2713 419Q2732 449 2761 472Q2790 496 2825 509Q2861 523 2897 523ZM3205 81Q3197 93 3197 104Q3198 116 3210 123Q3218 130 3228 129Q3239 128 3248 119Q3275 84 3313 62Q3352 41 3405 41Q3433 41 3460 50Q3488 60 3506 79Q3524 99 3524 129Q3524 160 3506 179Q3488 198 3459 209Q3431 220 3399 228Q3365 237 3333 248Q3301 260 3276 277Q3252 295 3237 320Q3222 345 3222 381Q3222 423 3245 455Q3268 487 3307 505Q3347 523 3397 523Q3422 523 3451 516Q3480 510 3508 495Q3536 480 3558 454Q3567 445 3567 433Q3567 422 3557 413Q3549 407 3538 407Q3528 407 3521 415Q3497 442 3464 456Q3431 470 3393 470Q3364 470 3338 460Q3313 451 3296 432Q3279 413 3279 382Q3281 353 3299 335Q3318 317 3348 305Q3379 293 3417 283Q3449 275 3478 264Q3508 253 3530 236Q3553 220 3566 195Q3580 170 3580 132Q3580 88 3555 56Q3531 24 3490 7Q3449 -10 3399 -10Q3345 -10 3294 11Q3244 32 3205 81ZM3761 490L3761 30Q3761 18 3752 9Q3743 0 3731 0Q3718 0 3709 9Q3701 18 3701 30L3701 490Q3701 502 3709 511Q3718 520 3731 520Q3744 520 3752 511Q3761 502 3761 490ZM3731 587Q3710 587 3699 596Q3689 606 3689 624L3689 634Q3689 652 3700 661Q3712 671 3732 671Q3751 671 3761 661Q3772 652 3772 634L3772 624Q3772 606 3761 596Q3751 587 3731 587ZM4332 740Q4345 740 4353 731Q4362 723 4362 710L4362 30Q4362 18 4353 9Q4344 0 4332 0Q4318 0 4310 9Q4302 18 4302 30L4302 149L4319 163Q4319 135 4304 104Q4289 74 4261 48Q4234 22 4197 6Q4161 -10 4118 -10Q4052 -10 3998 25Q3945 60 3914 120Q3883 180 3883 257Q3883 333 3914 393Q3945 454 3998 488Q4051 523 4117 523Q4159 523 4196 508Q4233 493 4261 467Q4290 441 4306 407Q4323 374 4323 338L4302 353L4302 710Q4302 722 4310 731Q4318 740 4332 740ZM4124 46Q4177 46 4218 73Q4259 101 4282 148Q4306 196 4306 257Q4306 317 4282 364Q4259 412 4218 439Q4177 467 4124 467Q4072 467 4030 439Q3989 412 3965 364Q3942 317 3942 257Q3942 197 3965 149Q3989 101 4030 73Q4072 46 4124 46ZM4746 -10Q4669 -10 4610 23Q4551 56 4518 115Q4485 174 4485 253Q4485 338 4518 398Q4552 458 4605 490Q4659 523 4719 523Q4763 523 4804 507Q4846 492 4878 461Q4910 431 4930 387Q4950 343 4951 285Q4951 273 4942 264Q4933 256 4921 256L4520 256L4508 310L4902 310L4889 298L4889 318Q4884 365 4858 398Q4832 431 4795 448Q4759 465 4719 465Q4689 465 4657 453Q4626 441 4600 415Q4575 390 4559 350Q4543 311 4543 257Q4543 198 4567 150Q4591 102 4636 74Q4681 46 4745 46Q4779 46 4807 56Q4835 66 4856 82Q4878 99 4892 117Q4903 126 4913 126Q4924 126 4931 118Q4939 110 4939 100Q4939 88 4929 79Q4899 43 4851 16Q4803 -10 4746 -10Z" fill="#143d59" style=""></path></g></g></g></svg>