<svg version="1.1" xmlns="http://www.w3.org/2000/svg" viewBox="-2291.6747048873985 -1559.95 7636.874704887398 2364.9"><desc>Created with Snap</desc><defs></defs><g><rect x="-2291.6747048873985" y="-1559.95" width="7636.874704887398" height="2364.9" fill="#37393a" style=""></rect><g transform="matrix(24.2113,0,0,24.2113,-1984.4747,-1252.75)"><path d="M72.333,61.661c-1.061-3.231-0.756-7.429-0.469-9.702l0.403-2.314L51.029,0.369L47.377,0  c-5.097,7.318-27.721,8.03-36.742,7.677l-2.639-0.54l-7.54,7.971L0,17.245l18.847,53.833l3.214,0.931l-0.003,0.028  c0.36,0.032,3.084,0.264,7.255,0.264c10.206,0,29.058-1.386,43.019-10.46l-0.096-0.148L72.333,61.661z M4.387,17.064l4.337-4.584  l0.767,2.077l-4.533,4.137L4.387,17.064z M6.035,21.773l4.577-4.177l0.686,1.859l-4.604,4.202L6.035,21.773z M7.773,26.735  l4.648-4.242l0.606,1.64l-4.672,4.264L7.773,26.735z M9.432,31.476l4.716-4.304l0.647,1.752l-4.742,4.327L9.432,31.476z   M11.132,36.33l4.786-4.367l0.684,1.852l-4.813,4.392L11.132,36.33z M12.866,41.285l4.857-4.432l0.584,1.582l-4.88,4.453  L12.866,41.285z M14.506,45.967l4.924-4.493l0.74,2.005l-4.953,4.52L14.506,45.967z M16.295,51.078l4.997-4.56l0.67,1.816  l-5.023,4.584L16.295,51.078z M18.72,58.005l-0.703-2.009l5.067-4.624l0.732,1.983L18.72,58.005z M19.798,61.084l5.14-4.69  l0.49,1.326l-5.159,4.708L19.798,61.084z M21.837,66.907l-0.491-1.401l5.203-4.748l0.691,1.871L21.837,66.907z M27.153,68.055  l3.641-2.883c14.221-0.985,25.405-3.471,33.243-7.388c1.313-0.656,2.417-1.303,3.36-1.919c-0.008,1.246,0.052,2.573,0.232,3.898  C53.871,67.471,35.639,68.198,27.153,68.055z M67.878,50.157c-2.228,2.247-10.921,8.896-36.785,10.78L12.997,11.927  c3.185,0.035,8.447-0.025,14.119-0.585c10.063-0.993,17.204-3.148,21.303-6.42l19.47,45.176  C67.885,50.117,67.882,50.137,67.878,50.157z" fill="#ffffff" style=""></path><desc>Created with Snap</desc><defs></defs></g><g><g transform="matrix(0.5,0,0,-0.5,0,0)"><path d="M642 981Q483 981 398 871Q314 762 314 550Q314 116 641 116Q722 116 783 149Q845 183 880 243Q916 304 933 380Q951 456 951 549Q951 675 921 769Q892 863 821 922Q750 981 642 981ZM659 1120Q805 1120 911 1046Q1017 972 1070 845Q1123 718 1123 554Q1123 384 1070 255Q1018 126 911 51Q805 -23 657 -23Q548 -23 458 24Q368 71 308 152L291 0L148 0L148 1523L315 1533L315 1170Q315 1036 311 940Q369 1023 461 1071Q554 1120 659 1120ZM1480 546Q1480 351 1566 233Q1653 116 1819 116Q1983 116 2066 233Q2150 350 2150 548Q2150 749 2067 864Q1985 980 1816 980Q1652 980 1566 862Q1480 744 1480 546ZM2323 549Q2323 294 2187 135Q2051 -23 1811 -23Q1580 -23 1443 137Q1307 297 1307 548Q1307 804 1444 962Q1581 1120 1820 1120Q2055 1120 2189 961Q2323 803 2323 549ZM2681 546Q2681 351 2767 233Q2854 116 3020 116Q3184 116 3267 233Q3351 350 3351 548Q3351 749 3268 864Q3186 980 3017 980Q2853 980 2767 862Q2681 744 2681 546ZM3524 549Q3524 294 3388 135Q3252 -23 3012 -23Q2781 -23 2644 137Q2508 297 2508 548Q2508 804 2645 962Q2782 1120 3021 1120Q3256 1120 3390 961Q3524 803 3524 549ZM3928 0L3762 0L3762 1523L3928 1533L3928 736L3928 596Q3934 602 3946 616Q3958 630 3965 637Q4052 732 4415 1097L4627 1097L4171 635L4659 0L4451 0L4050 540L3928 435L3928 0ZM5013 1479L5013 0L4840 0L4840 1479L5013 1479ZM5510 0L5341 0L5341 1097L5481 1097L5502 940Q5567 1021 5664 1070Q5762 1120 5875 1120Q6065 1120 6156 1013Q6247 907 6247 686L6247 0L6080 0Q6080 660 6079 707Q6075 847 6022 912Q5970 977 5847 977Q5718 977 5632 915Q5546 853 5520 754Q5510 687 5510 600L5510 0ZM6852 -23Q6740 -23 6645 1Q6551 25 6492 63L6513 204Q6680 115 6841 115Q7085 115 7092 287Q7092 360 7040 402Q6988 444 6836 496L6753 525Q6609 573 6547 644Q6486 715 6485 821Q6485 950 6588 1035Q6692 1120 6872 1120Q7058 1120 7211 1048L7162 920Q7007 984 6872 984Q6767 984 6707 942Q6648 901 6648 826Q6648 762 6691 728Q6734 694 6863 650Q6896 638 6946 622Q7112 568 7181 494Q7250 421 7250 296Q7248 144 7141 60Q7034 -23 6852 -23ZM7507 1097L7675 1097L7675 0L7507 0L7507 1097ZM7507 1496L7675 1496L7675 1298L7507 1298L7507 1496ZM8417 121Q8582 121 8662 227Q8743 333 8743 530Q8743 752 8665 864Q8588 977 8415 977Q8338 977 8279 944Q8220 911 8184 852Q8148 793 8129 716Q8111 640 8111 549Q8111 421 8142 327Q8174 233 8244 177Q8314 121 8417 121ZM8768 0L8746 159Q8692 76 8602 27Q8512 -22 8401 -22Q8184 -22 8061 132Q7938 287 7938 553Q7938 807 8063 963Q8188 1120 8398 1120Q8507 1120 8603 1072Q8700 1025 8748 945L8745 1040L8745 1523L8910 1533L8910 0L8768 0ZM9832 894Q9759 982 9631 982Q9503 982 9422 891Q9341 801 9327 644L9906 644Q9906 807 9832 894ZM9664 -23Q9425 -23 9287 129Q9150 281 9150 545Q9150 800 9283 958Q9416 1117 9633 1120Q9837 1120 9956 980Q10076 841 10076 608Q10076 596 10075 564Q10075 532 10075 518L9322 518Q9325 331 9418 226Q9512 122 9670 122Q9844 122 10019 214L10045 79Q9878 -23 9664 -23Z" fill="#ffffff" style=""></path></g></g></g></svg>